# xmcd CD database file
#
# Track frame offsets:
#	150
#	18307
#	38525
#	62872
#
# Disc length: 1044 seconds
#
# Revision: 1
# Processed by: cddbd v1.5.2PL0 Copyright (c) Steve Scherf et al.
# Submitted via: CDex 1.51
#
DISCID=28041204
DTITLE=Natural Born Hippies - In Your Dreams (Single)
DYEAR=2002
DGENRE=Pop
TTITLE0=In Your Dreams (Radio Edit)
TTITLE1=In Your Dreams (Album Version)
TTITLE2=Pay Per View
TTITLE3=In Your Dreams (String Mix)
EXTD=YEAR: 2002
EXTT0=
EXTT1=
EXTT2=
EXTT3=
PLAYORDER=
